<svg xmlns="http://www.w3.org/2000/svg" width="240" height="83" viewBox="0 0 240 83" fill="none"><g clip-path="url(#clip0_13_45)"><path d="M17.6852 46.6342V36.5334C17.0126 36.9874 16.1279 37.4181 15.0311 37.8255C13.9321 38.2328 12.6464 38.4365 11.1677 38.4365C9.86718 38.4365 8.56877 38.1331 7.27037 37.5284C5.96985 36.9238 4.80723 35.9945 3.77615 34.7407C2.74506 33.4868 1.90492 31.9084 1.25572 30.0032C0.606522 28.1002 0.281921 25.8259 0.281921 23.1824C0.281921 20.5389 0.606522 18.3006 1.25572 16.4634C1.90492 14.6261 2.75567 13.1261 3.80797 11.9614C4.86027 10.7967 6.05896 9.94591 7.40403 9.40703C8.74911 8.87027 10.1366 8.60083 11.5708 8.60083C13.2723 8.60083 14.6831 8.85966 15.8033 9.37308C16.9235 9.88862 17.7955 10.3702 18.4235 10.8179L19.4312 9.00393H25.6814V46.6342H17.6852ZM17.6852 16.3827C17.3266 16.16 16.7665 15.8269 16.0049 15.3814C15.2432 14.938 14.3013 14.7152 13.1832 14.7152C11.3459 14.7152 10.1154 15.5171 9.48741 17.1168C8.85943 18.7165 8.54756 21.029 8.54756 24.0522C8.54756 27.0755 9.01855 29.0443 9.9584 30.3554C10.8983 31.6665 11.9293 32.3221 13.0495 32.3221C14.1697 32.3221 15.0756 32.0675 15.9052 31.5562C16.7347 31.0449 17.3266 30.6333 17.6852 30.3236V16.3849V16.3827Z" fill="white"></path><path d="M45.5711 37.696L44.8328 35.0419C43.8462 35.7527 42.6582 36.4379 41.2707 37.1041C39.881 37.7682 38.4702 38.1012 37.0381 38.1012C35.8288 38.1012 34.7086 37.9336 33.6776 37.5963C32.6465 37.2611 31.7512 36.7116 30.9895 35.95C30.2279 35.1883 29.6232 34.17 29.1756 32.8928C28.7279 31.6156 28.503 30.0605 28.503 28.2232V9.00391H36.4992V26.7975C36.4992 28.8194 36.7114 30.1899 37.1378 30.9091C37.5621 31.6283 38.4023 31.9869 39.6583 31.9869C40.509 31.9869 41.3598 31.6941 42.2105 31.1107C43.0613 30.5272 43.7996 29.9205 44.4275 29.2904V9.00391H52.5595V37.6981H45.5711V37.696Z" fill="white"></path><path d="M76.3466 36.1854C74.1974 37.4626 71.7109 38.1012 68.8871 38.1012C64.4955 38.1012 61.137 36.8367 58.8075 34.3036C56.4781 31.7725 55.3133 28.1319 55.3133 23.3839C55.3133 18.6358 56.4441 15.2094 58.7078 12.5638C60.9694 9.92037 64.2515 8.59863 68.5519 8.59863C70.4783 8.59863 72.2583 8.90202 73.894 9.50666C75.5276 10.1113 76.9279 11.0193 78.0947 12.2286C79.2595 13.4379 80.1654 14.9506 80.8167 16.7646C81.4659 18.5785 81.7672 20.6746 81.7247 23.0486C81.7247 23.1399 81.7354 23.2396 81.7587 23.352C81.782 23.4645 81.7693 23.5875 81.7247 23.7212C81.7247 23.8124 81.7141 23.9227 81.6908 24.0564C81.6675 24.1901 81.6569 24.504 81.6569 24.9962H63.5811V25.0641C63.5811 27.0351 64.1072 28.6814 65.1595 30.0032C66.2118 31.3249 67.68 31.9847 69.5618 31.9847C70.8156 31.9847 71.9464 31.6601 72.9563 31.0109C73.964 30.3617 74.9145 29.1863 75.8119 27.4827L81.9263 30.1708C80.3585 32.9033 78.5 34.9082 76.3487 36.1854H76.3466ZM71.8106 15.6889C71.0257 14.8615 69.984 14.4457 68.6856 14.4457C65.9084 14.4457 64.2939 16.0814 63.8484 19.3507H73.3233C73.0984 17.7384 72.5956 16.5185 71.8106 15.6889Z" fill="white"></path><path d="M108.972 30.2874C108.232 32.1735 107.281 33.6989 106.116 34.8679C104.952 36.0348 103.675 36.8898 102.287 37.4286C100.897 37.9654 99.5756 38.2348 98.3218 38.2348C96.754 38.2348 95.3749 37.9145 94.189 37.2716C93.0009 36.6288 92.0483 35.9987 91.3333 35.3771L90.7287 37.7278H84.6801V0.0656738H92.6763V10.0986C93.3488 9.64668 94.2314 9.21601 95.3304 8.80866C96.4272 8.40132 97.715 8.19765 99.1938 8.19765C100.806 8.19765 102.274 8.50104 103.596 9.10781C104.916 9.71457 106.059 10.6459 107.022 11.9019C107.986 13.16 108.737 14.7533 109.273 16.6839C109.81 18.6146 110.08 20.8825 110.08 23.4878C110.08 26.0931 109.71 28.4035 108.97 30.2896L108.972 30.2874ZM100.371 16.302C99.4526 14.9761 98.4321 14.312 97.314 14.312C96.196 14.312 95.2858 14.5708 94.4584 15.0885C93.6289 15.6062 93.0348 16.022 92.6784 16.336V28.9508C92.6784 29.2203 92.723 29.547 92.8121 29.9289C92.9012 30.3108 93.1027 30.6587 93.4167 30.9748C93.7307 31.2888 94.1784 31.5604 94.7618 31.7853C95.3431 32.0102 96.1493 32.1226 97.1804 32.1226C99.0155 32.1226 100.238 31.3143 100.842 29.6955C101.447 28.0768 101.75 25.7388 101.75 22.6795C101.75 19.6202 101.29 17.6323 100.373 16.3042L100.371 16.302Z" fill="white"></path><path d="M131.919 15.7229C131.246 15.6338 130.529 15.5786 129.77 15.5553C129.008 15.5341 128.223 15.5659 127.417 15.6571C126.611 15.7483 125.849 15.9265 125.132 16.1939C123.876 16.6882 122.926 17.3353 122.276 18.1436C121.627 18.9498 121.211 19.5099 121.033 19.8239V37.6981H112.901V9.00387H121.033V11.8256C122.242 10.7054 123.643 9.84401 125.234 9.23936C126.823 8.63471 128.469 8.39922 130.173 8.53288L133.533 15.9244C133.13 15.8799 132.592 15.8141 131.921 15.7229H131.919Z" fill="white"></path><path d="M149.721 37.7638V36.285C149.004 36.7327 148.085 37.1697 146.965 37.5962C145.845 38.0205 144.547 38.2348 143.068 38.2348C142.351 38.2348 141.455 38.1011 140.38 37.8317C139.304 37.5622 138.273 37.0934 137.289 36.4208C136.302 35.7483 135.462 34.8318 134.768 33.6649C134.072 32.5002 133.727 31.0214 133.727 29.2308C133.727 27.4402 134.13 25.849 134.936 24.5931C135.742 23.3392 136.805 22.3421 138.129 21.6017C139.451 20.8634 140.929 20.3372 142.565 20.0232C144.199 19.7113 145.868 19.5522 147.572 19.5522H149.721V18.6781C149.721 17.244 149.43 16.181 148.847 15.4852C148.264 14.7914 147.033 14.4435 145.151 14.4435C144.3 14.4435 143.583 14.6111 143.002 14.9484C142.419 15.2836 141.95 15.6655 141.591 16.0898C141.233 16.5163 140.953 16.9406 140.751 17.367C140.55 17.7934 140.426 18.0947 140.382 18.275L133.998 16.9979C134.535 15.2497 135.207 13.8516 136.014 12.7971C136.82 11.7448 137.951 10.7817 139.408 9.90757C140.864 9.03348 142.756 8.59644 145.085 8.59644C147.415 8.59644 149.454 8.88921 151.066 9.47052C152.679 10.054 153.977 10.8262 154.963 11.7894C155.948 12.7526 156.654 13.8961 157.081 15.2157C157.505 16.5375 157.719 17.9377 157.719 19.4164V37.7617H149.723L149.721 37.7638ZM149.721 24.5931H148.983C148.802 24.5931 148.3 24.627 147.47 24.6949C146.641 24.7628 145.766 24.9304 144.85 25.1998C143.931 25.4693 143.104 25.8957 142.363 26.477C141.623 27.0605 141.254 27.8433 141.254 28.8299C141.254 30.264 141.623 31.1933 142.363 31.6176C143.102 32.044 144.188 32.2562 145.622 32.2562C146.517 32.2562 147.336 32.044 148.075 31.6176C148.813 31.1933 149.363 30.8687 149.721 30.6438V24.5952V24.5931Z" fill="white"></path><path d="M175.732 37.696V19.9024C175.732 17.8806 175.521 16.51 175.099 15.793C174.677 15.0737 173.867 14.7152 172.668 14.7152C171.779 14.7152 170.924 15.008 170.103 15.5914C169.28 16.1748 168.558 16.7816 167.937 17.4117V37.6982H159.807V9.00393H167.937V11.3928C168.87 10.7288 169.98 10.0965 171.266 9.49825C172.553 8.89997 173.884 8.60083 175.261 8.60083C176.48 8.60083 177.609 8.76843 178.647 9.10576C179.684 9.44097 180.588 10.0032 181.356 10.786C182.124 11.571 182.733 12.5894 183.185 13.8432C183.636 15.0971 183.861 16.6437 183.861 18.481V37.7003H175.732V37.696Z" fill="white"></path><path d="M204.088 37.7151V36.5058C203.46 36.9492 202.678 37.348 201.736 37.7023C200.796 38.0566 199.676 38.2327 198.375 38.2327C196.805 38.2327 195.318 37.9633 193.907 37.4265C192.496 36.8876 191.253 36.0242 190.177 34.834C189.102 33.6438 188.238 32.1184 187.591 30.2535C186.942 28.3908 186.617 26.1334 186.617 23.4857C186.617 20.838 186.942 18.6146 187.591 16.6818C188.24 14.7512 189.08 13.1579 190.112 11.8998C191.143 10.6438 192.305 9.71245 193.606 9.10568C194.904 8.49891 196.203 8.19553 197.503 8.19553C198.982 8.19553 200.27 8.40132 201.366 8.80654C202.463 9.21388 203.348 9.64456 204.021 10.0965V0.0656738H212.017V37.7151H204.088ZM204.021 16.3339C203.662 16.0199 203.068 15.6041 202.241 15.0864C201.411 14.5708 200.461 14.3099 199.385 14.3099C198.309 14.3099 197.234 14.9739 196.294 16.2999C195.354 17.628 194.883 19.7517 194.883 22.6752C194.883 25.5988 195.195 28.0725 195.823 29.6913C196.451 31.31 197.681 32.1184 199.519 32.1184C201.131 32.1184 202.251 31.9168 202.879 31.5116C203.505 31.1064 203.887 30.8157 204.021 30.6354V16.3339Z" fill="white"></path><path d="M236.538 34.2016C234.23 36.8006 230.971 38.099 226.759 38.099C222.548 38.099 219.289 36.8345 216.981 34.3014C214.673 31.7703 213.521 28.1297 213.521 23.3816C213.521 18.6336 214.652 15.273 216.915 12.6295C219.177 9.98605 222.459 8.66431 226.759 8.66431C230.835 8.66431 234.06 9.96483 236.436 12.5616C238.81 15.1606 239.998 18.7672 239.998 23.3816C239.998 27.9961 238.844 31.6027 236.538 34.1995V34.2016ZM230.39 16.582C229.492 15.3812 228.283 14.7808 226.762 14.7808C225.24 14.7808 223.974 15.3812 223.1 16.582C222.226 17.7828 221.789 20.0487 221.789 23.3838C221.789 26.7189 222.226 28.9847 223.1 30.1855C223.974 31.3863 225.194 31.9846 226.762 31.9846C228.329 31.9846 229.494 31.3842 230.39 30.1855C231.285 28.9847 231.735 26.7189 231.735 23.3838C231.735 20.0487 231.287 17.7828 230.39 16.582Z" fill="white"></path><path d="M23.0167 79.0346C20.7084 81.6336 17.4497 82.932 13.2383 82.932C9.02703 82.932 5.7683 81.6675 3.46003 79.1344C1.15176 76.6033 -0.000247955 72.9627 -0.000247955 68.2146C-0.000247955 63.4666 1.13055 60.106 3.39426 57.4625C5.65586 54.8191 8.93793 53.4973 13.2383 53.4973C17.3139 53.4973 20.5387 54.7978 22.9148 57.3946C25.2889 59.9936 26.4769 63.6002 26.4769 68.2146C26.4769 72.8291 25.3228 76.4357 23.0167 79.0325V79.0346ZM16.8684 61.415C15.9709 60.2142 14.7616 59.6138 13.2405 59.6138C11.7193 59.6138 10.4527 60.2142 9.57864 61.415C8.70455 62.6158 8.26751 64.8817 8.26751 68.2168C8.26751 71.5519 8.70455 73.8177 9.57864 75.0185C10.4527 76.2193 11.6726 76.8176 13.2405 76.8176C14.8083 76.8176 15.9731 76.2172 16.8684 75.0185C17.7637 73.8177 18.2134 71.5519 18.2134 68.2168C18.2134 64.8817 17.7658 62.6158 16.8684 61.415Z" fill="#D21123"></path><path d="M50.4549 80.3799C48.3949 82.0835 45.325 82.9343 41.2494 82.9343C38.3832 82.9343 35.9073 82.3296 33.8239 81.1203C31.7406 79.911 30.0942 77.8276 28.8849 74.8702L34.8656 72.1142C35.6273 73.9961 36.5332 75.2966 37.5876 76.0116C38.6399 76.7287 40.0168 77.0872 41.7204 77.0872C43.1992 77.0872 44.2621 76.8305 44.9134 76.315C45.5626 75.8015 45.8872 75.2054 45.8872 74.535C45.8872 74.2231 45.8299 73.9197 45.7196 73.6269C45.6071 73.3363 45.3716 73.0668 45.0131 72.8207C44.6546 72.5746 44.1157 72.3285 43.4007 72.0824C42.6836 71.8363 41.7204 71.5775 40.5111 71.3102C39.2106 71.0407 37.9355 70.6949 36.6817 70.2685C35.4257 69.8442 34.3055 69.2947 33.3211 68.6221C32.3346 67.9496 31.5517 67.1095 30.9704 66.1017C30.387 65.094 30.0963 63.8507 30.0963 62.372C30.0963 61.1181 30.3658 59.9534 30.9025 58.8778C31.4393 57.8021 32.1903 56.8623 33.1535 56.0561C34.1167 55.2499 35.2709 54.6219 36.6138 54.1742C37.9568 53.7266 39.4355 53.5017 41.0479 53.5017C43.4665 53.5017 45.7281 54.0512 47.8348 55.148C49.9394 56.247 51.5751 58.1607 52.7399 60.8933L46.7592 63.7149C46.1757 62.1471 45.3823 61.0375 44.3745 60.3883C43.3668 59.7391 42.2805 59.4145 41.1158 59.4145C39.951 59.4145 39.0218 59.6161 38.4617 60.0192C37.9016 60.4223 37.6216 60.9378 37.6216 61.5658C37.6216 61.9243 37.7892 62.2829 38.1265 62.6414C38.4617 63 39.1894 63.3373 40.3096 63.6492C41.6971 64.0523 43.1758 64.4681 44.7437 64.8924C46.3115 65.3189 47.7457 65.879 49.0441 66.5727C50.3425 67.2686 51.4181 68.1745 52.2689 69.2947C53.1196 70.4149 53.5461 71.8936 53.5461 73.7288C53.5461 76.4613 52.515 78.6805 50.4549 80.382V80.3799Z" fill="white"></path><path d="M56.3677 82.5312V78.0292H58.92V58.1395L56.3677 58.0716V53.3681H66.9841V78.0292H69.6042V82.5312H56.3656H56.3677ZM65.9424 50.4106C65.0683 51.2614 63.9821 51.6878 62.6837 51.6878C61.3853 51.6878 60.3542 51.2635 59.4589 50.4106C58.5614 49.5599 58.1138 48.5288 58.1138 47.3195C58.1138 46.1102 58.5614 45.0791 59.4589 44.2284C60.3542 43.3776 61.4298 42.9512 62.6837 42.9512C63.9375 42.9512 65.0683 43.3776 65.9424 44.2284C66.8165 45.0791 67.2535 46.1102 67.2535 47.3195C67.2535 48.5288 66.8165 49.5599 65.9424 50.4106Z" fill="white"></path><path d="M72.3601 82.5312V78.0292H74.9124V49.6044H72.3601V44.9009H83.0444V78.0292H85.6645V82.5312H72.3601Z" fill="white"></path><path d="M109.388 81.0183C107.239 82.2955 104.752 82.9341 101.928 82.9341C97.5368 82.9341 94.1784 81.6697 91.8489 79.1365C89.5194 76.6055 88.3547 72.9649 88.3547 68.2168C88.3547 63.4687 89.4855 60.0424 91.7492 57.3968C94.0108 54.7533 97.2928 53.4316 101.593 53.4316C103.52 53.4316 105.3 53.735 106.935 54.3396C108.569 54.9442 109.969 55.8523 111.136 57.0616C112.301 58.2709 113.207 59.7835 113.858 61.5975C114.507 63.4114 114.809 65.5075 114.766 67.8816C114.766 67.9728 114.777 68.0725 114.8 68.185C114.823 68.2974 114.811 68.4205 114.766 68.5541C114.766 68.6453 114.755 68.7557 114.732 68.8893C114.709 69.023 114.698 69.337 114.698 69.8292H96.6224V69.8971C96.6224 71.868 97.1486 73.5143 98.2009 74.8361C99.2532 76.1578 100.721 76.8176 102.603 76.8176C103.857 76.8176 104.988 76.493 105.998 75.8438C107.005 75.1946 107.956 74.0193 108.853 72.3157L114.968 75.0037C113.4 77.7363 111.541 79.7412 109.39 81.0183H109.388ZM105.289 50.2068L101.795 46.4431L98.3006 50.2068H91.9847L98.57 42.009H104.954L111.607 50.2068H105.291H105.289ZM104.852 60.5219C104.067 59.6944 103.025 59.2786 101.727 59.2786C98.9498 59.2786 97.3353 60.9143 96.8897 64.1837H106.365C106.14 62.5713 105.637 61.3514 104.852 60.5219Z" fill="white"></path><path d="M133.646 82.531V64.7374C133.646 62.7155 133.436 61.345 133.014 60.6279C132.592 59.9087 131.781 59.5502 130.582 59.5502C129.693 59.5502 128.838 59.8429 128.017 60.4264C127.194 61.0098 126.473 61.6166 125.851 62.2467V82.5331H117.721V53.8389H125.851V56.2278C126.785 55.5637 127.894 54.9315 129.18 54.3332C130.468 53.7349 131.798 53.4358 133.175 53.4358C134.395 53.4358 135.524 53.6034 136.561 53.9407C137.598 54.2759 138.502 54.8381 139.27 55.621C140.038 56.406 140.647 57.4243 141.099 58.6782C141.551 59.932 141.776 61.4787 141.776 63.3159V82.5352H133.646V82.531Z" fill="white"></path><path d="M164.825 80.7596C162.854 82.2107 160.412 82.9342 157.501 82.9342C153.423 82.9342 150.243 81.6697 147.958 79.1366C145.673 76.6055 144.532 72.9649 144.532 68.2168C144.532 63.4688 145.652 60.1082 147.892 57.4647C150.133 54.8212 153.313 53.4995 157.435 53.4995C160.257 53.4995 162.678 54.2145 164.693 55.6402C166.708 57.068 168.232 59.2872 169.263 62.3019L162.073 63.9822C161.445 62.3698 160.817 61.239 160.191 60.5877C159.563 59.9385 158.668 59.6139 157.503 59.6139C156.83 59.6139 156.202 59.7475 155.621 60.0149C155.038 60.2822 154.546 60.7489 154.142 61.4151C153.739 62.0813 153.415 62.9702 153.169 64.0819C152.923 65.1936 152.799 66.5705 152.799 68.2147C152.799 69.8589 152.91 71.2273 153.135 72.3157C153.36 73.4041 153.682 74.2824 154.108 74.9486C154.533 75.6148 155.072 76.0921 155.721 76.3828C156.37 76.6734 157.121 76.8156 157.972 76.8156C159.226 76.8156 160.233 76.4698 160.995 75.7739C161.757 75.0801 162.563 73.9048 163.414 72.2457L169.664 74.1275C168.408 77.0977 166.795 79.3063 164.825 80.7553V80.7596Z" fill="white"></path><path d="M171.607 82.5312V78.0292H174.159V58.1395L171.607 58.0716V53.3681H182.224V78.0292H184.844V82.5312H171.605H171.607ZM181.182 50.4106C180.308 51.2614 179.221 51.6878 177.923 51.6878C176.625 51.6878 175.594 51.2635 174.698 50.4106C173.801 49.5599 173.353 48.5288 173.353 47.3195C173.353 46.1102 173.801 45.0791 174.698 44.2284C175.594 43.3776 176.669 42.9512 177.923 42.9512C179.177 42.9512 180.308 43.3776 181.182 44.2284C182.056 45.0791 182.493 46.1102 182.493 47.3195C182.493 48.5288 182.056 49.5599 181.182 50.4106Z" fill="white"></path><path d="M209.235 79.0346C206.927 81.6336 203.668 82.932 199.459 82.932C195.25 82.932 191.989 81.6675 189.681 79.1344C187.373 76.6033 186.221 72.9627 186.221 68.2146C186.221 63.4666 187.351 60.106 189.615 57.4625C191.877 54.8191 195.159 53.4973 199.459 53.4973C203.535 53.4973 206.759 54.7978 209.136 57.3946C211.51 59.9936 212.698 63.6002 212.698 68.2146C212.698 72.8291 211.544 76.4357 209.237 79.0325L209.235 79.0346ZM203.087 61.415C202.19 60.2142 200.98 59.6138 199.459 59.6138C197.938 59.6138 196.671 60.2142 195.797 61.415C194.923 62.6158 194.486 64.8817 194.486 68.2168C194.486 71.5519 194.923 73.8177 195.797 75.0185C196.671 76.2193 197.891 76.8176 199.459 76.8176C201.027 76.8176 202.192 76.2172 203.087 75.0185C203.982 73.8177 204.43 71.5519 204.43 68.2168C204.43 64.8817 203.982 62.6158 203.087 61.415Z" fill="white"></path><path d="M216.691 49.687C218.935 49.687 220.677 51.4288 220.677 53.6013C220.677 55.7738 218.935 57.5411 216.667 57.5411C214.399 57.5411 212.632 55.8226 212.632 53.6013C212.632 51.38 214.423 49.687 216.667 49.687H216.691ZM216.644 50.4741C214.925 50.4741 213.635 51.8828 213.635 53.6013C213.635 55.3198 214.925 56.7285 216.691 56.7285C218.409 56.7518 219.676 55.3431 219.676 53.6013C219.676 51.8595 218.411 50.4741 216.667 50.4741H216.644ZM216.048 55.6317H215.14V51.7407C215.498 51.6686 215.999 51.5964 216.644 51.5964C217.384 51.5964 217.717 51.7152 218.004 51.9062C218.218 52.0738 218.386 52.3835 218.386 52.7421C218.386 53.1961 218.05 53.5292 217.573 53.6734V53.7222C217.955 53.841 218.169 54.1529 218.29 54.6769C218.409 55.2731 218.481 55.5128 218.577 55.6317H217.599C217.48 55.4895 217.408 55.1543 217.289 54.7003C217.217 54.2696 216.979 54.0787 216.476 54.0787H216.046V55.6295L216.048 55.6317ZM216.071 53.4358H216.502C217.002 53.4358 217.41 53.2682 217.41 52.863C217.41 52.5045 217.147 52.2668 216.574 52.2668C216.334 52.2668 216.169 52.2902 216.073 52.3156V53.4379L216.071 53.4358Z" fill="white"></path></g><defs><clipPath id="clip0_13_45"><rect width="240" height="82.8685" fill="white" transform="translate(0 0.0656738)"></rect></clipPath></defs></svg>