<svg xmlns="http://www.w3.org/2000/svg" width="115" height="37" viewBox="0 0 115 37" fill="none"><path d="M52.3152 24.864L36.2448 10.3488L37.4832 11.04L37.5696 24H33.336V1.968H33.5088L49.2336 16.4256L48.312 16.0224L48.2256 2.8032H52.4304V24.864H52.3152ZM55.4987 24L65.0603 1.968H65.2907L74.8523 24H70.0139L63.9083 8.5056L66.9323 6.432L59.6171 24H55.4987ZM62.0363 16.3392H68.4011L69.8699 19.8528H60.7403L62.0363 16.3392ZM84.3646 2.8032C86.1118 2.8032 87.5902 3.1008 88.7998 3.696C90.0094 4.272 90.931 5.0976 91.5646 6.1728C92.1982 7.2288 92.515 8.4864 92.515 9.9456C92.515 10.8096 92.3806 11.6832 92.1118 12.5664C91.8622 13.4304 91.4494 14.2176 90.8734 14.928C90.3166 15.6384 89.5582 16.2144 88.5982 16.656C87.6574 17.0784 86.4958 17.2896 85.1134 17.2896H82.1182V24H77.9422V2.8032H84.3646ZM85.0846 13.2288C85.7182 13.2288 86.2462 13.1232 86.6686 12.912C87.091 12.6816 87.4174 12.4032 87.6478 12.0768C87.8974 11.7312 88.0702 11.376 88.1662 11.0112C88.2814 10.6464 88.339 10.3296 88.339 10.0608C88.339 9.8496 88.3006 9.5712 88.2238 9.2256C88.1662 8.8608 88.0318 8.496 87.8206 8.1312C87.6094 7.7664 87.283 7.4592 86.8414 7.2096C86.419 6.96 85.843 6.8352 85.1134 6.8352H82.1182V13.2288H85.0846Z" fill="#2694D5"></path><path d="M95.7 22.2798V2.2562H100.35V10.3426H107.4V2.2562H112.2V22.2798H107.4V14.3217H100.35V22.2798H95.7Z" fill="#EC7000"></path><path d="M8.02697 23.6523C9.07697 24.0754 8.74249 24.0201 10.277 24.3574C11.8114 24.6947 12.4694 24.7303 14.0244 24.4899C15.5793 24.2495 17.0687 23.7235 18.4074 22.942C19.7462 22.1605 20.9081 21.1387 21.8268 19.9351C22.7455 18.7314 23.403 17.3695 23.7618 15.927C24.1206 14.4844 24.2146 13.224 23.9179 11.5278C23.6212 9.83169 23.0977 8.64659 22.2663 7.38807C22.073 7.09538 21.8016 6.74036 21.5163 6.40099C21.368 6.22445 21.2354 6.09577 21.077 5.88493C20.9163 4.01653 20.844 2.88269 20.0163 2.3244C20.0163 2.3244 20.3529 3.61858 20.1663 5.14462C20.0899 5.76974 20.254 5.42435 19.577 7.01302C18.9 8.60168 17.6786 9.12566 16.5 10.4348C15.2055 11.8726 14.4152 12.5134 13.277 14.0636C12.0052 15.7956 10.2102 17.9287 9.22696 19.845C8.32295 21.607 8.02697 23.6523 8.02697 23.6523Z" fill="url(#paint0_linear_15_7)"></path><path d="M18.7302 4.4938C16.1938 2.74927 12.986 1.92614 9.88024 2.37863C6.7745 2.83112 4.23597 4.22452 2.38024 6.60897C0.524508 8.99341 -0.351097 11.586 0.130239 14.5056C0.447443 16.4297 1.93024 19.723 4.93024 22.4022C5.99043 23.745 6.91533 25.1916 7.78024 25.7865C7.78024 25.7865 6.20767 21.5178 7.05 18.4725C7.4342 17.0835 11.2302 12.5314 11.9802 10.5573C11.3802 10.5573 8.63122 10.0465 6.58024 10.6983C5.23024 11.4033 4.33024 12.1084 4.33024 12.1084C4.33024 12.1084 4.77803 9.80061 5.98024 9.14717C7.89749 8.10507 9.80807 8.63504 11.55 8.6017C14.0508 8.55384 16.204 8.10507 17.5302 6.60897C18.1678 5.88979 18.7302 4.4938 18.7302 4.4938Z" fill="url(#paint1_radial_15_7)"></path><ellipse cx="13.2" cy="5.07641" rx="2.1" ry="1.97416" fill="#F5F5F5"></ellipse><path d="M35.1059 27.6927V30.6786H34.5399L33.2704 28.6074V30.6786H32.7065V27.6927H33.2704L34.544 29.7661V27.6927H35.1059ZM37.3412 27.6927H37.9052V29.6758C37.9052 29.9041 37.856 30.0962 37.7575 30.2521C37.6591 30.4066 37.5251 30.5235 37.3556 30.6028C37.186 30.6807 36.9933 30.7197 36.7773 30.7197C36.5585 30.7197 36.3637 30.6807 36.1928 30.6028C36.0219 30.5235 35.8879 30.4066 35.7908 30.2521C35.6938 30.0962 35.6452 29.9041 35.6452 29.6758V27.6927H36.2092V29.6758C36.2092 29.8153 36.2324 29.9294 36.2789 30.0183C36.3254 30.1058 36.391 30.1707 36.4758 30.2131C36.5606 30.2555 36.661 30.2767 36.7773 30.2767C36.8948 30.2767 36.9953 30.2555 37.0787 30.2131C37.1635 30.1707 37.2284 30.1058 37.2735 30.0183C37.3187 29.9294 37.3412 29.8153 37.3412 29.6758V27.6927ZM36.5066 27.5163L36.9085 26.8929H37.5073L36.9475 27.5163H36.5066ZM40.1877 29.6963H40.7517C40.7366 29.8959 40.6813 30.073 40.5856 30.2275C40.4899 30.3806 40.3566 30.5009 40.1857 30.5884C40.0148 30.6759 39.8076 30.7197 39.5643 30.7197C39.377 30.7197 39.2081 30.6869 39.0577 30.6212C38.9087 30.5542 38.7809 30.4592 38.6742 30.3362C38.569 30.2118 38.4883 30.0627 38.4322 29.8891C38.3762 29.7141 38.3482 29.5179 38.3482 29.3005V29.0729C38.3482 28.8555 38.3769 28.6593 38.4343 28.4843C38.4917 28.3093 38.5737 28.1603 38.6804 28.0372C38.7884 27.9128 38.9176 27.8171 39.068 27.7501C39.2197 27.6831 39.3893 27.6496 39.5766 27.6496C39.8199 27.6496 40.0257 27.6948 40.1939 27.785C40.362 27.8739 40.4926 27.9962 40.5856 28.1521C40.6785 28.3079 40.7346 28.487 40.7537 28.6894H40.1898C40.1788 28.5636 40.1515 28.457 40.1077 28.3695C40.0653 28.282 40.0011 28.2157 39.9149 28.1705C39.8302 28.1241 39.7174 28.1008 39.5766 28.1008C39.4672 28.1008 39.3708 28.1213 39.2874 28.1623C39.2054 28.2034 39.137 28.2649 39.0823 28.3469C39.0276 28.4276 38.9866 28.5287 38.9593 28.6504C38.9319 28.7707 38.9183 28.9102 38.9183 29.0688V29.3005C38.9183 29.4523 38.9306 29.5883 38.9552 29.7086C38.9798 29.8289 39.0181 29.9308 39.07 30.0142C39.122 30.0976 39.189 30.1612 39.271 30.2049C39.353 30.2487 39.4508 30.2705 39.5643 30.2705C39.7024 30.2705 39.8145 30.2487 39.9006 30.2049C39.9881 30.1612 40.0544 30.0969 40.0995 30.0121C40.146 29.9274 40.1754 29.8221 40.1877 29.6963ZM43.0834 30.2357V30.6786H41.5822V30.2357H43.0834ZM41.7524 27.6927V30.6786H41.1885V27.6927H41.7524ZM45.4398 30.2357V30.6786H43.8524V30.2357H45.4398ZM44.0247 27.6927V30.6786H43.4608V27.6927H44.0247ZM45.2326 28.9252V29.3579H43.8524V28.9252H45.2326ZM45.4336 27.6927V28.1377H43.8524V27.6927H45.4336ZM48.2493 29.1098V29.2636C48.2493 29.4892 48.2192 29.6922 48.1591 29.8727C48.0989 30.0518 48.0135 30.2042 47.9027 30.33C47.792 30.4558 47.6601 30.5522 47.5069 30.6192C47.3538 30.6862 47.1836 30.7197 46.9963 30.7197C46.8117 30.7197 46.6422 30.6862 46.4877 30.6192C46.3346 30.5522 46.202 30.4558 46.0899 30.33C45.9777 30.2042 45.8909 30.0518 45.8294 29.8727C45.7679 29.6922 45.7371 29.4892 45.7371 29.2636V29.1098C45.7371 28.8828 45.7679 28.6798 45.8294 28.5007C45.8909 28.3216 45.9771 28.1692 46.0878 28.0434C46.1985 27.9162 46.3305 27.8192 46.4836 27.7522C46.6381 27.6852 46.8076 27.6517 46.9922 27.6517C47.1795 27.6517 47.3497 27.6852 47.5028 27.7522C47.656 27.8192 47.7879 27.9162 47.8986 28.0434C48.0108 28.1692 48.0969 28.3216 48.157 28.5007C48.2186 28.6798 48.2493 28.8828 48.2493 29.1098ZM47.6792 29.2636V29.1057C47.6792 28.943 47.6642 28.8001 47.6341 28.6771C47.604 28.5527 47.5596 28.4481 47.5008 28.3633C47.442 28.2786 47.3695 28.215 47.2834 28.1726C47.1973 28.1288 47.1002 28.107 46.9922 28.107C46.8828 28.107 46.7858 28.1288 46.701 28.1726C46.6176 28.215 46.5465 28.2786 46.4877 28.3633C46.4289 28.4481 46.3838 28.5527 46.3524 28.6771C46.3223 28.8001 46.3072 28.943 46.3072 29.1057V29.2636C46.3072 29.4249 46.3223 29.5678 46.3524 29.6922C46.3838 29.8166 46.4289 29.9219 46.4877 30.008C46.5479 30.0928 46.6203 30.1571 46.7051 30.2008C46.7899 30.2446 46.8869 30.2664 46.9963 30.2664C47.1057 30.2664 47.2027 30.2446 47.2875 30.2008C47.3723 30.1571 47.4434 30.0928 47.5008 30.008C47.5596 29.9219 47.604 29.8166 47.6341 29.6922C47.6642 29.5678 47.6792 29.4249 47.6792 29.2636ZM50.6651 30.6786H50.0212L50.0253 30.2357H50.6651C50.8388 30.2357 50.9844 30.1974 51.102 30.1208C51.2195 30.0429 51.3084 29.9315 51.3686 29.7866C51.4287 29.6403 51.4588 29.4653 51.4588 29.2616V29.1078C51.4588 28.9505 51.4417 28.8118 51.4075 28.6914C51.3733 28.5711 51.3228 28.47 51.2558 28.3879C51.1901 28.3059 51.1088 28.2437 51.0117 28.2013C50.9147 28.1589 50.8032 28.1377 50.6775 28.1377H50.0089V27.6927H50.6775C50.8771 27.6927 51.0589 27.7262 51.223 27.7932C51.3884 27.8602 51.5313 27.9566 51.6516 28.0824C51.7733 28.2068 51.8662 28.3558 51.9305 28.5294C51.9961 28.7031 52.0289 28.8972 52.0289 29.1119V29.2616C52.0289 29.4748 51.9961 29.669 51.9305 29.844C51.8662 30.0176 51.7733 30.1666 51.6516 30.2911C51.5313 30.4155 51.3877 30.5112 51.2209 30.5782C51.0541 30.6452 50.8689 30.6786 50.6651 30.6786ZM50.337 27.6927V30.6786H49.7731V27.6927H50.337ZM54.4878 30.2357V30.6786H52.9005V30.2357H54.4878ZM53.0728 27.6927V30.6786H52.5088V27.6927H53.0728ZM54.2807 28.9252V29.3579H52.9005V28.9252H54.2807ZM54.4816 27.6927V28.1377H52.9005V27.6927H54.4816ZM57.1128 28.1459L56.2617 30.6786H55.665L56.7806 27.6927H57.162L57.1128 28.1459ZM57.8244 30.6786L56.9692 28.1459L56.918 27.6927H57.3015L58.4233 30.6786H57.8244ZM57.7855 29.5692V30.0142H56.1838V29.5692H57.7855ZM59.7542 27.6927V30.6786H59.1923V27.6927H59.7542ZM60.6812 27.6927V28.1377H58.2756V27.6927H60.6812ZM63.0355 30.2357V30.6786H61.4482V30.2357H63.0355ZM61.6204 27.6927V30.6786H61.0565V27.6927H61.6204ZM62.8283 28.9252V29.3579H61.4482V28.9252H62.8283ZM63.0293 27.6927V28.1377H61.4482V27.6927H63.0293ZM65.8266 27.6927V30.6786H65.2606L63.9911 28.6074V30.6786H63.4272V27.6927H63.9911L65.2647 29.7661V27.6927H65.8266ZM67.2929 30.6786H66.6489L66.653 30.2357H67.2929C67.4665 30.2357 67.6121 30.1974 67.7297 30.1208C67.8473 30.0429 67.9361 29.9315 67.9963 29.7866C68.0565 29.6403 68.0865 29.4653 68.0865 29.2616V29.1078C68.0865 28.9505 68.0694 28.8118 68.0353 28.6914C68.0011 28.5711 67.9505 28.47 67.8835 28.3879C67.8179 28.3059 67.7365 28.2437 67.6395 28.2013C67.5424 28.1589 67.431 28.1377 67.3052 28.1377H66.6366V27.6927H67.3052C67.5048 27.6927 67.6866 27.7262 67.8507 27.7932C68.0161 27.8602 68.159 27.9566 68.2793 28.0824C68.401 28.2068 68.494 28.3558 68.5582 28.5294C68.6238 28.7031 68.6567 28.8972 68.6567 29.1119V29.2616C68.6567 29.4748 68.6238 29.669 68.5582 29.844C68.494 30.0176 68.401 30.1666 68.2793 30.2911C68.159 30.4155 68.0154 30.5112 67.8486 30.5782C67.6818 30.6452 67.4966 30.6786 67.2929 30.6786ZM66.9648 27.6927V30.6786H66.4008V27.6927H66.9648ZM69.7374 27.6927V30.6786H69.1734V27.6927H69.7374ZM70.5926 27.6927H71.0807L71.8969 29.9404L72.711 27.6927H73.2012L72.0917 30.6786H71.7L70.5926 27.6927ZM70.3465 27.6927H70.8243L70.9105 29.7578V30.6786H70.3465V27.6927ZM72.9674 27.6927H73.4473V30.6786H72.8833V29.7578L72.9674 27.6927ZM76.0005 30.2357V30.6786H74.4132V30.2357H76.0005ZM74.5855 27.6927V30.6786H74.0215V27.6927H74.5855ZM75.7934 28.9252V29.3579H74.4132V28.9252H75.7934ZM75.9943 27.6927V28.1377H74.4132V27.6927H75.9943ZM78.7916 27.6927V30.6786H78.2256L76.9562 28.6074V30.6786H76.3922V27.6927H76.9562L78.2297 29.7661V27.6927H78.7916ZM80.586 27.6927V30.6786H80.0241V27.6927H80.586ZM81.513 27.6927V28.1377H79.1074V27.6927H81.513ZM84.2487 29.1098V29.2636C84.2487 29.4892 84.2187 29.6922 84.1585 29.8727C84.0983 30.0518 84.0129 30.2042 83.9022 30.33C83.7914 30.4558 83.6595 30.5522 83.5064 30.6192C83.3532 30.6862 83.183 30.7197 82.9957 30.7197C82.8111 30.7197 82.6416 30.6862 82.4871 30.6192C82.334 30.5522 82.2014 30.4558 82.0893 30.33C81.9772 30.2042 81.8903 30.0518 81.8288 29.8727C81.7673 29.6922 81.7365 29.4892 81.7365 29.2636V29.1098C81.7365 28.8828 81.7673 28.6798 81.8288 28.5007C81.8903 28.3216 81.9765 28.1692 82.0872 28.0434C82.198 27.9162 82.3299 27.8192 82.483 27.7522C82.6375 27.6852 82.807 27.6517 82.9916 27.6517C83.1789 27.6517 83.3491 27.6852 83.5023 27.7522C83.6554 27.8192 83.7873 27.9162 83.8981 28.0434C84.0102 28.1692 84.0963 28.3216 84.1565 28.5007C84.218 28.6798 84.2487 28.8828 84.2487 29.1098ZM83.6786 29.2636V29.1057C83.6786 28.943 83.6636 28.8001 83.6335 28.6771C83.6034 28.5527 83.559 28.4481 83.5002 28.3633C83.4414 28.2786 83.369 28.215 83.2828 28.1726C83.1967 28.1288 83.0996 28.107 82.9916 28.107C82.8822 28.107 82.7852 28.1288 82.7004 28.1726C82.617 28.215 82.5459 28.2786 82.4871 28.3633C82.4283 28.4481 82.3832 28.5527 82.3518 28.6771C82.3217 28.8001 82.3067 28.943 82.3067 29.1057V29.2636C82.3067 29.4249 82.3217 29.5678 82.3518 29.6922C82.3832 29.8166 82.4283 29.9219 82.4871 30.008C82.5473 30.0928 82.6197 30.1571 82.7045 30.2008C82.7893 30.2446 82.8863 30.2664 82.9957 30.2664C83.1051 30.2664 83.2022 30.2446 83.2869 30.2008C83.3717 30.1571 83.4428 30.0928 83.5002 30.008C83.559 29.9219 83.6034 29.8166 83.6335 29.6922C83.6636 29.5678 83.6786 29.4249 83.6786 29.2636ZM86.9517 27.6927V30.6786H86.3898V27.6927H86.9517ZM87.8786 27.6927V28.1377H85.4731V27.6927H87.8786ZM90.2329 30.2357V30.6786H88.6456V30.2357H90.2329ZM88.8179 27.6927V30.6786H88.2539V27.6927H88.8179ZM90.0258 28.9252V29.3579H88.6456V28.9252H90.0258ZM90.2268 27.6927V28.1377H88.6456V27.6927H90.2268ZM90.6246 27.6927H91.7095C91.9364 27.6927 92.1313 27.7269 92.294 27.7953C92.4567 27.8636 92.5817 27.9648 92.6692 28.0988C92.7567 28.2328 92.8005 28.3975 92.8005 28.593C92.8005 28.7475 92.7732 28.8815 92.7185 28.995C92.6638 29.1084 92.5865 29.2035 92.4867 29.28C92.3883 29.3566 92.2721 29.4167 92.1381 29.4605L91.9617 29.5507H91.004L90.9999 29.1057H91.7156C91.8318 29.1057 91.9282 29.0852 92.0048 29.0442C92.0814 29.0032 92.1388 28.9464 92.1771 28.874C92.2167 28.8015 92.2365 28.7188 92.2365 28.6258C92.2365 28.526 92.2174 28.4399 92.1791 28.3674C92.1408 28.2936 92.0827 28.2369 92.0048 28.1972C91.9269 28.1576 91.8284 28.1377 91.7095 28.1377H91.1886V30.6786H90.6246V27.6927ZM92.3104 30.6786L91.6192 29.3415L92.216 29.3395L92.9153 30.6499V30.6786H92.3104ZM94.4821 28.1459L93.6311 30.6786H93.0343L94.1499 27.6927H94.5314L94.4821 28.1459ZM95.1938 30.6786L94.3386 28.1459L94.2873 27.6927H94.6708L95.7926 30.6786H95.1938ZM95.1548 29.5692V30.0142H93.5531V29.5692H95.1548ZM97.2486 29.5897H96.4796V29.1467H97.2486C97.3744 29.1467 97.4763 29.1262 97.5542 29.0852C97.6335 29.0428 97.6916 28.9854 97.7285 28.9129C97.7654 28.8391 97.7839 28.755 97.7839 28.6607C97.7839 28.5691 97.7654 28.4836 97.7285 28.4043C97.6916 28.325 97.6335 28.2608 97.5542 28.2116C97.4763 28.1623 97.3744 28.1377 97.2486 28.1377H96.6642V30.6786H96.1002V27.6927H97.2486C97.4811 27.6927 97.6793 27.7344 97.8434 27.8178C98.0088 27.8998 98.1346 28.014 98.2207 28.1603C98.3082 28.3052 98.352 28.4706 98.352 28.6566C98.352 28.8494 98.3082 29.0155 98.2207 29.1549C98.1346 29.2944 98.0088 29.4017 97.8434 29.4769C97.6793 29.5521 97.4811 29.5897 97.2486 29.5897ZM100.774 30.2357V30.6786H99.1866V30.2357H100.774ZM99.3589 27.6927V30.6786H98.7949V27.6927H99.3589ZM100.567 28.9252V29.3579H99.1866V28.9252H100.567ZM100.768 27.6927V28.1377H99.1866V27.6927H100.768ZM99.9659 26.8806L100.561 27.4487V27.4733H100.126L99.808 27.1616L99.4922 27.4733H99.0636V27.4446L99.6501 26.8806H99.9659ZM102.827 27.6927H103.391V29.6758C103.391 29.9041 103.342 30.0962 103.243 30.2521C103.145 30.4066 103.011 30.5235 102.841 30.6028C102.672 30.6807 102.479 30.7197 102.263 30.7197C102.044 30.7197 101.849 30.6807 101.678 30.6028C101.507 30.5235 101.373 30.4066 101.276 30.2521C101.179 30.0962 101.131 29.9041 101.131 29.6758V27.6927H101.695V29.6758C101.695 29.8153 101.718 29.9294 101.764 30.0183C101.811 30.1058 101.877 30.1707 101.961 30.2131C102.046 30.2555 102.147 30.2767 102.263 30.2767C102.38 30.2767 102.481 30.2555 102.564 30.2131C102.649 30.1707 102.714 30.1058 102.759 30.0183C102.804 29.9294 102.827 29.8153 102.827 29.6758V27.6927ZM105.208 27.6927V30.6786H104.646V27.6927H105.208ZM106.135 27.6927V28.1377H103.729V27.6927H106.135ZM107.111 27.6927V30.6786H106.547V27.6927H107.111ZM109.467 29.6963H110.031C110.016 29.8959 109.961 30.073 109.865 30.2275C109.769 30.3806 109.636 30.5009 109.465 30.5884C109.294 30.6759 109.087 30.7197 108.844 30.7197C108.656 30.7197 108.488 30.6869 108.337 30.6212C108.188 30.5542 108.06 30.4592 107.954 30.3362C107.848 30.2118 107.768 30.0627 107.712 29.8891C107.656 29.7141 107.628 29.5179 107.628 29.3005V29.0729C107.628 28.8555 107.656 28.6593 107.714 28.4843C107.771 28.3093 107.853 28.1603 107.96 28.0372C108.068 27.9128 108.197 27.8171 108.347 27.7501C108.499 27.6831 108.669 27.6496 108.856 27.6496C109.099 27.6496 109.305 27.6948 109.473 27.785C109.642 27.8739 109.772 27.9962 109.865 28.1521C109.958 28.3079 110.014 28.487 110.033 28.6894H109.469C109.458 28.5636 109.431 28.457 109.387 28.3695C109.345 28.282 109.281 28.2157 109.194 28.1705C109.11 28.1241 108.997 28.1008 108.856 28.1008C108.747 28.1008 108.65 28.1213 108.567 28.1623C108.485 28.2034 108.417 28.2649 108.362 28.3469C108.307 28.4276 108.266 28.5287 108.239 28.6504C108.211 28.7707 108.198 28.9102 108.198 29.0688V29.3005C108.198 29.4523 108.21 29.5883 108.235 29.7086C108.259 29.8289 108.298 29.9308 108.35 30.0142C108.401 30.0976 108.468 30.1612 108.551 30.2049C108.633 30.2487 108.73 30.2705 108.844 30.2705C108.982 30.2705 109.094 30.2487 109.18 30.2049C109.268 30.1612 109.334 30.0969 109.379 30.0121C109.426 29.9274 109.455 29.8221 109.467 29.6963ZM112.886 29.1098V29.2636C112.886 29.4892 112.856 29.6922 112.796 29.8727C112.735 30.0518 112.65 30.2042 112.539 30.33C112.429 30.4558 112.297 30.5522 112.143 30.6192C111.99 30.6862 111.82 30.7197 111.633 30.7197C111.448 30.7197 111.279 30.6862 111.124 30.6192C110.971 30.5522 110.838 30.4558 110.726 30.33C110.614 30.2042 110.527 30.0518 110.466 29.8727C110.404 29.6922 110.374 29.4892 110.374 29.2636V29.1098C110.374 28.8828 110.404 28.6798 110.466 28.5007C110.527 28.3216 110.614 28.1692 110.724 28.0434C110.835 27.9162 110.967 27.8192 111.12 27.7522C111.275 27.6852 111.444 27.6517 111.629 27.6517C111.816 27.6517 111.986 27.6852 112.139 27.7522C112.292 27.8192 112.424 27.9162 112.535 28.0434C112.647 28.1692 112.733 28.3216 112.794 28.5007C112.855 28.6798 112.886 28.8828 112.886 29.1098ZM112.316 29.2636V29.1057C112.316 28.943 112.301 28.8001 112.271 28.6771C112.241 28.5527 112.196 28.4481 112.137 28.3633C112.079 28.2786 112.006 28.215 111.92 28.1726C111.834 28.1288 111.737 28.107 111.629 28.107C111.519 28.107 111.422 28.1288 111.338 28.1726C111.254 28.215 111.183 28.2786 111.124 28.3633C111.065 28.4481 111.02 28.5527 110.989 28.6771C110.959 28.8001 110.944 28.943 110.944 29.1057V29.2636C110.944 29.4249 110.959 29.5678 110.989 29.6922C111.02 29.8166 111.065 29.9219 111.124 30.008C111.184 30.0928 111.257 30.1571 111.342 30.2008C111.426 30.2446 111.523 30.2664 111.633 30.2664C111.742 30.2664 111.839 30.2446 111.924 30.2008C112.009 30.1571 112.08 30.0928 112.137 30.008C112.196 29.9219 112.241 29.8166 112.271 29.6922C112.301 29.5678 112.316 29.4249 112.316 29.2636ZM52.1274 35.2357V35.6786H50.54V35.2357H52.1274ZM50.7123 32.6927V35.6786H50.1483V32.6927H50.7123ZM51.9202 33.9252V34.3579H50.54V33.9252H51.9202ZM52.1212 32.6927V33.1377H50.54V32.6927H52.1212ZM54.7134 34.5897H53.9443V34.1467H54.7134C54.8392 34.1467 54.941 34.1262 55.019 34.0852C55.0983 34.0428 55.1564 33.9854 55.1933 33.9129C55.2302 33.8391 55.2486 33.755 55.2486 33.6607C55.2486 33.5691 55.2302 33.4836 55.1933 33.4043C55.1564 33.325 55.0983 33.2608 55.019 33.2116C54.941 33.1623 54.8392 33.1377 54.7134 33.1377H54.1289V35.6786H53.565V32.6927H54.7134C54.9458 32.6927 55.1441 32.7344 55.3081 32.8178C55.4735 32.8998 55.5993 33.014 55.6855 33.1603C55.773 33.3052 55.8167 33.4706 55.8167 33.6566C55.8167 33.8494 55.773 34.0155 55.6855 34.1549C55.5993 34.2944 55.4735 34.4017 55.3081 34.4769C55.1441 34.5521 54.9458 34.5897 54.7134 34.5897ZM56.2597 32.6927H57.3445C57.5715 32.6927 57.7663 32.7269 57.929 32.7953C58.0917 32.8636 58.2168 32.9648 58.3043 33.0988C58.3918 33.2328 58.4356 33.3975 58.4356 33.593C58.4356 33.7475 58.4082 33.8815 58.3535 33.995C58.2988 34.1084 58.2216 34.2035 58.1218 34.28C58.0233 34.3566 57.9071 34.4167 57.7732 34.4605L57.5968 34.5507H56.6391L56.635 34.1057H57.3507C57.4669 34.1057 57.5633 34.0852 57.6399 34.0442C57.7164 34.0032 57.7738 33.9464 57.8121 33.874C57.8518 33.8015 57.8716 33.7188 57.8716 33.6258C57.8716 33.526 57.8525 33.4399 57.8142 33.3674C57.7759 33.2936 57.7178 33.2369 57.6399 33.1972C57.5619 33.1576 57.4635 33.1377 57.3445 33.1377H56.8236V35.6786H56.2597V32.6927ZM57.9454 35.6786L57.2543 34.3415L57.8511 34.3395L58.5504 35.6499V35.6786H57.9454ZM61.3477 34.1098V34.2636C61.3477 34.4892 61.3176 34.6922 61.2574 34.8727C61.1973 35.0518 61.1118 35.2042 61.0011 35.33C60.8903 35.4558 60.7584 35.5522 60.6053 35.6192C60.4522 35.6862 60.2819 35.7197 60.0946 35.7197C59.9101 35.7197 59.7405 35.6862 59.586 35.6192C59.4329 35.5522 59.3003 35.4558 59.1882 35.33C59.0761 35.2042 58.9893 35.0518 58.9277 34.8727C58.8662 34.6922 58.8355 34.4892 58.8355 34.2636V34.1098C58.8355 33.8828 58.8662 33.6798 58.9277 33.5007C58.9893 33.3216 59.0754 33.1692 59.1861 33.0434C59.2969 32.9162 59.4288 32.8192 59.5819 32.7522C59.7364 32.6852 59.906 32.6517 60.0905 32.6517C60.2778 32.6517 60.4481 32.6852 60.6012 32.7522C60.7543 32.8192 60.8862 32.9162 60.997 33.0434C61.1091 33.1692 61.1952 33.3216 61.2554 33.5007C61.3169 33.6798 61.3477 33.8828 61.3477 34.1098ZM60.7775 34.2636V34.1057C60.7775 33.943 60.7625 33.8001 60.7324 33.6771C60.7024 33.5527 60.6579 33.4481 60.5991 33.3633C60.5403 33.2786 60.4679 33.215 60.3817 33.1726C60.2956 33.1288 60.1985 33.107 60.0905 33.107C59.9812 33.107 59.8841 33.1288 59.7993 33.1726C59.7159 33.215 59.6448 33.2786 59.586 33.3633C59.5273 33.4481 59.4821 33.5527 59.4507 33.6771C59.4206 33.8001 59.4056 33.943 59.4056 34.1057V34.2636C59.4056 34.4249 59.4206 34.5678 59.4507 34.6922C59.4821 34.8166 59.5273 34.9219 59.586 35.008C59.6462 35.0928 59.7187 35.1571 59.8034 35.2008C59.8882 35.2446 59.9853 35.2664 60.0946 35.2664C60.204 35.2664 60.3011 35.2446 60.3859 35.2008C60.4706 35.1571 60.5417 35.0928 60.5991 35.008C60.6579 34.9219 60.7024 34.8166 60.7324 34.6922C60.7625 34.5678 60.7775 34.4249 60.7775 34.2636ZM62.0716 32.6927H62.5597L63.3759 34.9404L64.19 32.6927H64.6802L63.5707 35.6786H63.179L62.0716 32.6927ZM61.8255 32.6927H62.3033L62.3895 34.7578V35.6786H61.8255V32.6927ZM64.4464 32.6927H64.9263V35.6786H64.3623V34.7578L64.4464 32.6927ZM67.9184 34.1098V34.2636C67.9184 34.4892 67.8883 34.6922 67.8281 34.8727C67.768 35.0518 67.6825 35.2042 67.5718 35.33C67.461 35.4558 67.3291 35.5522 67.176 35.6192C67.0229 35.6862 66.8526 35.7197 66.6653 35.7197C66.4808 35.7197 66.3112 35.6862 66.1567 35.6192C66.0036 35.5522 65.871 35.4558 65.7589 35.33C65.6468 35.2042 65.56 35.0518 65.4984 34.8727C65.4369 34.6922 65.4062 34.4892 65.4062 34.2636V34.1098C65.4062 33.8828 65.4369 33.6798 65.4984 33.5007C65.56 33.3216 65.6461 33.1692 65.7568 33.0434C65.8676 32.9162 65.9995 32.8192 66.1526 32.7522C66.3071 32.6852 66.4767 32.6517 66.6612 32.6517C66.8485 32.6517 67.0188 32.6852 67.1719 32.7522C67.325 32.8192 67.4569 32.9162 67.5677 33.0434C67.6798 33.1692 67.7659 33.3216 67.8261 33.5007C67.8876 33.6798 67.9184 33.8828 67.9184 34.1098ZM67.3483 34.2636V34.1057C67.3483 33.943 67.3332 33.8001 67.3031 33.6771C67.2731 33.5527 67.2286 33.4481 67.1698 33.3633C67.111 33.2786 67.0386 33.215 66.9525 33.1726C66.8663 33.1288 66.7692 33.107 66.6612 33.107C66.5519 33.107 66.4548 33.1288 66.37 33.1726C66.2866 33.215 66.2155 33.2786 66.1567 33.3633C66.098 33.4481 66.0528 33.5527 66.0214 33.6771C65.9913 33.8001 65.9763 33.943 65.9763 34.1057V34.2636C65.9763 34.4249 65.9913 34.5678 66.0214 34.6922C66.0528 34.8166 66.098 34.9219 66.1567 35.008C66.2169 35.0928 66.2894 35.1571 66.3741 35.2008C66.4589 35.2446 66.556 35.2664 66.6653 35.2664C66.7747 35.2664 66.8718 35.2446 66.9566 35.2008C67.0413 35.1571 67.1124 35.0928 67.1698 35.008C67.2286 34.9219 67.2731 34.8166 67.3031 34.6922C67.3332 34.5678 67.3483 34.4249 67.3483 34.2636ZM70.1435 34.6963H70.7074C70.6924 34.8959 70.637 35.073 70.5413 35.2275C70.4456 35.3806 70.3123 35.5009 70.1414 35.5884C69.9705 35.6759 69.7634 35.7197 69.52 35.7197C69.3327 35.7197 69.1639 35.6869 69.0135 35.6212C68.8645 35.5542 68.7366 35.4592 68.63 35.3362C68.5247 35.2118 68.4441 35.0627 68.388 34.8891C68.3319 34.7141 68.3039 34.5179 68.3039 34.3005V34.0729C68.3039 33.8555 68.3326 33.6593 68.3901 33.4843C68.4475 33.3093 68.5295 33.1603 68.6361 33.0372C68.7442 32.9128 68.8734 32.8171 69.0237 32.7501C69.1755 32.6831 69.345 32.6496 69.5323 32.6496C69.7757 32.6496 69.9815 32.6948 70.1496 32.785C70.3178 32.8739 70.4484 32.9962 70.5413 33.1521C70.6343 33.3079 70.6903 33.487 70.7095 33.6894H70.1455C70.1346 33.5636 70.1072 33.457 70.0635 33.3695C70.0211 33.282 69.9568 33.2157 69.8707 33.1705C69.7859 33.1241 69.6732 33.1008 69.5323 33.1008C69.423 33.1008 69.3266 33.1213 69.2432 33.1623C69.1611 33.2034 69.0928 33.2649 69.0381 33.3469C68.9834 33.4276 68.9424 33.5287 68.9151 33.6504C68.8877 33.7707 68.874 33.9102 68.874 34.0688V34.3005C68.874 34.4523 68.8863 34.5883 68.9109 34.7086C68.9356 34.8289 68.9738 34.9308 69.0258 35.0142C69.0777 35.0976 69.1447 35.1612 69.2268 35.2049C69.3088 35.2487 69.4066 35.2705 69.52 35.2705C69.6581 35.2705 69.7702 35.2487 69.8564 35.2049C69.9439 35.1612 70.0102 35.0969 70.0553 35.0121C70.1018 34.9274 70.1312 34.8221 70.1435 34.6963ZM69.3211 35.6786H69.7251L69.7026 35.7955C69.7805 35.8092 69.8516 35.842 69.9158 35.894C69.9801 35.9459 70.0122 36.0314 70.0122 36.1503C70.0122 36.2214 69.9972 36.2857 69.9671 36.3431C69.9384 36.4005 69.8946 36.4497 69.8359 36.4908C69.7771 36.5331 69.7039 36.5653 69.6164 36.5871C69.5303 36.609 69.4298 36.62 69.315 36.62L69.3006 36.3164C69.3498 36.3164 69.3936 36.3103 69.4318 36.298C69.4715 36.2857 69.5023 36.2659 69.5241 36.2385C69.5474 36.2125 69.559 36.179 69.559 36.138C69.559 36.097 69.5487 36.0649 69.5282 36.0416C69.5077 36.0198 69.4749 36.0027 69.4298 35.9904C69.386 35.9794 69.3286 35.9719 69.2575 35.9678L69.3211 35.6786ZM72.3317 33.1459L71.4806 35.6786H70.8838L71.9994 32.6927H72.3809L72.3317 33.1459ZM73.0433 35.6786L72.1881 33.1459L72.1368 32.6927H72.5203L73.6421 35.6786H73.0433ZM73.0043 34.5692V35.0142H71.4026V34.5692H73.0043ZM72.7069 31.9093L73.0289 31.9319C73.0289 32.0317 73.0084 32.1219 72.9674 32.2026C72.9277 32.2819 72.8737 32.3448 72.8054 32.3912C72.737 32.4377 72.6584 32.461 72.5695 32.461C72.5039 32.461 72.4472 32.4521 72.3993 32.4343C72.3528 32.4165 72.3098 32.3953 72.2701 32.3707C72.2318 32.3461 72.1922 32.3249 72.1512 32.3072C72.1102 32.288 72.0623 32.2785 72.0076 32.2785C71.9584 32.2785 71.916 32.2969 71.8805 32.3338C71.8463 32.3707 71.8292 32.4206 71.8292 32.4835L71.5052 32.4671C71.5052 32.3687 71.525 32.2791 71.5647 32.1985C71.6043 32.1178 71.6583 32.0536 71.7267 32.0057C71.7964 31.9578 71.8757 31.9339 71.9646 31.9339C72.0206 31.9339 72.0712 31.9428 72.1163 31.9606C72.1628 31.9784 72.2072 31.9995 72.2496 32.0242C72.292 32.0474 72.3351 32.0686 72.3788 32.0877C72.4239 32.1055 72.4725 32.1144 72.5244 32.1144C72.575 32.1144 72.6181 32.0959 72.6536 32.059C72.6892 32.0221 72.7069 31.9722 72.7069 31.9093ZM76.3307 34.1098V34.2636C76.3307 34.4892 76.3006 34.6922 76.2404 34.8727C76.1803 35.0518 76.0948 35.2042 75.9841 35.33C75.8734 35.4558 75.7414 35.5522 75.5883 35.6192C75.4352 35.6862 75.265 35.7197 75.0776 35.7197C74.8931 35.7197 74.7235 35.6862 74.5691 35.6192C74.4159 35.5522 74.2833 35.4558 74.1712 35.33C74.0591 35.2042 73.9723 35.0518 73.9108 34.8727C73.8492 34.6922 73.8185 34.4892 73.8185 34.2636V34.1098C73.8185 33.8828 73.8492 33.6798 73.9108 33.5007C73.9723 33.3216 74.0584 33.1692 74.1692 33.0434C74.2799 32.9162 74.4118 32.8192 74.565 32.7522C74.7194 32.6852 74.889 32.6517 75.0735 32.6517C75.2609 32.6517 75.4311 32.6852 75.5842 32.7522C75.7373 32.8192 75.8693 32.9162 75.98 33.0434C76.0921 33.1692 76.1782 33.3216 76.2384 33.5007C76.2999 33.6798 76.3307 33.8828 76.3307 34.1098ZM75.7606 34.2636V34.1057C75.7606 33.943 75.7455 33.8001 75.7154 33.6771C75.6854 33.5527 75.6409 33.4481 75.5821 33.3633C75.5234 33.2786 75.4509 33.215 75.3648 33.1726C75.2786 33.1288 75.1816 33.107 75.0735 33.107C74.9642 33.107 74.8671 33.1288 74.7823 33.1726C74.6989 33.215 74.6278 33.2786 74.5691 33.3633C74.5103 33.4481 74.4651 33.5527 74.4337 33.6771C74.4036 33.8001 74.3886 33.943 74.3886 34.1057V34.2636C74.3886 34.4249 74.4036 34.5678 74.4337 34.6922C74.4651 34.8166 74.5103 34.9219 74.5691 35.008C74.6292 35.0928 74.7017 35.1571 74.7864 35.2008C74.8712 35.2446 74.9683 35.2664 75.0776 35.2664C75.187 35.2664 75.2841 35.2446 75.3689 35.2008C75.4536 35.1571 75.5247 35.0928 75.5821 35.008C75.6409 34.9219 75.6854 34.8166 75.7154 34.6922C75.7455 34.5678 75.7606 34.4249 75.7606 34.2636ZM79.8355 33.9252V34.3682H78.2646V33.9252H79.8355ZM78.4184 32.6927V35.6786H77.8544V32.6927H78.4184ZM80.2538 32.6927V35.6786H79.6899V32.6927H80.2538ZM82.4892 32.6927H83.0531V34.6758C83.0531 34.9041 83.0039 35.0962 82.9055 35.2521C82.807 35.4066 82.6731 35.5235 82.5035 35.6028C82.334 35.6807 82.1412 35.7197 81.9252 35.7197C81.7065 35.7197 81.5116 35.6807 81.3407 35.6028C81.1698 35.5235 81.0359 35.4066 80.9388 35.2521C80.8417 35.0962 80.7932 34.9041 80.7932 34.6758V32.6927H81.3571V34.6758C81.3571 34.8153 81.3804 34.9294 81.4269 35.0183C81.4734 35.1058 81.539 35.1707 81.6237 35.2131C81.7085 35.2555 81.809 35.2767 81.9252 35.2767C82.0428 35.2767 82.1433 35.2555 82.2267 35.2131C82.3114 35.1707 82.3764 35.1058 82.4215 35.0183C82.4666 34.9294 82.4892 34.8153 82.4892 34.6758V32.6927ZM83.8345 32.6927H84.3226L85.1388 34.9404L85.9529 32.6927H86.4431L85.3336 35.6786H84.9419L83.8345 32.6927ZM83.5884 32.6927H84.0662L84.1524 34.7578V35.6786H83.5884V32.6927ZM86.2093 32.6927H86.6892V35.6786H86.1252V34.7578L86.2093 32.6927ZM88.4877 33.1459L87.6366 35.6786H87.0399L88.1555 32.6927H88.5369L88.4877 33.1459ZM89.1993 35.6786L88.3441 33.1459L88.2929 32.6927H88.6764L89.7982 35.6786H89.1993ZM89.1604 34.5692V35.0142H87.5587V34.5692H89.1604ZM92.5052 32.6927V35.6786H91.9392L90.6697 33.6074V35.6786H90.1058V32.6927H90.6697L91.9433 34.7661V32.6927H92.5052ZM94.3037 33.1459L93.4526 35.6786H92.8559L93.9715 32.6927H94.3529L94.3037 33.1459ZM95.0153 35.6786L94.1602 33.1459L94.1089 32.6927H94.4924L95.6142 35.6786H95.0153ZM94.9764 34.5692V35.0142H93.3747V34.5692H94.9764Z" fill="black"></path><defs><linearGradient id="paint0_linear_15_7" x1="19.35" y1="30.4584" x2="11.5794" y2="7.09893" gradientUnits="userSpaceOnUse"><stop stop-color="#60361A"></stop><stop offset="0.0001" stop-color="#E77B32" stop-opacity="0.97"></stop><stop offset="1" stop-color="#F37E2E"></stop></linearGradient><radialGradient id="paint1_radial_15_7" cx="0" cy="0" r="1" gradientUnits="userSpaceOnUse" gradientTransform="translate(47.4 -12.691) rotate(145.64) scale(67.9582 49.8094)"><stop stop-color="#2694D5"></stop><stop offset="1" stop-color="#177BBD" stop-opacity="0.86"></stop></radialGradient></defs></svg>